<?xml version="1.0" encoding="UTF-8"?>
<svg preserveAspectRatio="none" version="1.1" viewBox="0 0 550 400" xmlns="http://www.w3.org/2000/svg" xmlns:xlink="http://www.w3.org/1999/xlink">
 <defs>
  <linearGradient id="o" x1="-819.2" x2="819.2" gradientUnits="userSpaceOnUse">
   <stop stop-color="#575757" offset="0"/>
   <stop offset="1"/>
  </linearGradient>
  <radialGradient id="p" cx="0" cy="0" r="3.6" gradientTransform="translate(38.8 33.2)" gradientUnits="userSpaceOnUse">
   <stop stop-color="#fff" offset="0"/>
   <stop offset="1"/>
  </radialGradient>
  <linearGradient id="q" x1="-1175.2" x2="463.25" y1="-339" y2="-339" gradientUnits="userSpaceOnUse">
   <stop stop-color="#F8EEE7" offset="0"/>
   <stop stop-color="#BA7430" offset="1"/>
  </linearGradient>
  <g id="w">
   <path d="m80.75-35.95q-51.643 26.39-94.15 3.1 29.2 30.925 52.15 61.35 24.138-31.962 42-64.45m12.75 9.95q-1.4463-6.6111-1.95-15.9-5.4312 3.2504-10.8 5.95-17.862 32.488-42 64.45-22.95-30.425-52.15-61.35-2.8021-1.5406-5.6-3.3 10.947 20.293 16 37.65 29.072 46.418 35.15 83.55 9.2062 25.572 15.1 65.2-3.0293-67.337 4.3-100.75 5.1201-11.631 12-20.5 10.955-29.907 29.95-55m-51.15 59.2q0 1.45-1.05 2.5-0.89277 0.89277-2.1 1v0.05q7.5635 0.067578 15.3-2.45 2.2824 6.5014-2.95 11-0.8418 2.7854-1.8 5.3-0.75801 2.1121-1.6 4.05-0.61504 1.4273-1.3 2.75-3.1879 6.6854-7.3 11.4-4.4672-5.4295-7.5-11.15-1.0383-1.908-1.9-3.9-0.5623-1.2689-1.05-2.6-1.0135-2.6252-1.75-5.35-5.3412-5.725-2.35-11.5 6.6914 2.2844 13.5 2.45-1.2529-0.10293-2.2-1.05-1.05-1.05-1.05-2.5t1.05-2.5 2.5-1.05 2.5 1.05 1.05 2.5z" fill="#333"/>
   <path d="m-73.25-52.2q-32.599 1.7832-68.75 14.2-13.842 18.868-37 28-6.215 26.821-22 51-18.181 19.259-27 51-15.486 48.388-27 65h99q13.838-34.768 18-72-4.1625 37.232-18 72h199.5q-9.5373-71.465-32-102.5 22.463 31.035 32 102.5h3.8l-0.05-6.75q-5.8938-39.628-15.1-65.2-9.0537-25.1-21.3-36.65-17.317-40.017-55.55-47-27.319-20.609-45.75-42 9.9955-4.6523 17.2-11.6m317.75 44.2q-39.052-25.622-89.95-31.5-18.731 21.391-46.5 42-27.582 4.9535-44.5 26.5-6.8799 8.8691-12 20.5-7.3293 33.413-4.3 100.75l0.05 6.75h5.2q-5.5629-95.973 14.5-122.5-20.063 26.527-14.5 122.5h179.45l-10-52 10 52h79q4.0145-28.209-17-45-1.3902-18.445-27-49-12.926-62.709-22.45-71m-156.5-79.5l5.5 28.5q-2.3719 9.6574-1.95 17.1 0.50371 9.2889 1.95 15.9-18.995 25.093-29.95 55 16.918-21.546 44.5-26.5 27.769-20.609 46.5-42-17.925-8.2102-27-23.5-10.543-28.164-26-46.5-36.815-27.688-71.05-32.4-32.615 3.6125-68.85 31.3-15.166 18.336-25.55 46.5-3.8471 6.6256-9.35 11.9-7.2045 6.9477-17.2 11.6 18.431 21.391 45.75 42 38.233 6.9832 55.55 47 12.246 11.55 21.3 36.65-6.0781-37.132-35.15-83.55-5.0527-17.357-16-37.65-1.6693-3.1406-3.5-6.35-0.095312-10.914-7.5-20 5.4787-6.3826 5.5-25.5 51.261-48.642 112.5 0.5m59.5 51q-16.856 18.214-39.5 34.5 22.644-16.286 39.5-34.5m-232.5-2q19.339 21.145 40.5 35-21.161-13.855-40.5-35z" fill="url(#o)"/>
   <path d="m91.55-41.9q-0.42188-7.4426 1.95-17.1l-12.75 23.05q5.3688-2.6996 10.8-5.95m1.95-17.1l-5.5-28.5q-61.239-49.142-112.5-0.5-0.021289 19.117-5.5 25.5 7.4047 9.0863 7.5 20l9.1 9.65q42.507 23.29 94.15-3.1l12.75-23.05z" fill="#fc9"/>
   <path d="m44.45 50.75l1.7-0.05-1.05-2.1q-0.25098 1.1223-0.65 2.15m1.7-0.05l-1.7 0.05q-1.3016 3.9385-3.95 6.75l6.35-0.1q0.68496-1.3227 1.3-2.75l-2-3.95m3.6-0.1l-3.6 0.1 2 3.95q0.84199-1.9379 1.6-4.05m-20.65 0.55q0.4877 1.3311 1.05 2.6l1.4-2.65-2.45 0.05m2.45-0.05l3.15-0.1q-0.575-1.835-1-3.95l-2.15 4.05m3.15-0.1l-3.15 0.1-1.4 2.65q0.86172 1.992 1.9 3.9l6.05-0.1q-2.1174-2.7041-3.4-6.55m4.45 7.8q-0.53594-0.57109-1.05-1.25l-6.05 0.1q3.0328 5.7205 7.5 11.15 4.1121-4.7146 7.3-11.4l-6.35 0.1q-0.61699 0.70938-1.35 1.3m-5.45-11.75q-0.099219-0.66035-0.2-1.35l-6.15 0.1q0.73652 2.7248 1.75 5.35l2.45-0.05 2.15-4.05m11.95-1.6q-0.16504 1.6396-0.55 3.15l1.05 2.1 3.6-0.1q0.9582-2.5146 1.8-5.3l-5.9 0.15z" fill="#999"/>
   <path d="m34.7 51q1.2826 3.8459 3.4 6.55l2.4-0.05q2.6484-2.8115 3.95-6.75l-9.75 0.25m3.4 6.55q0.51406 0.67891 1.05 1.25 0.73301-0.59062 1.35-1.3l-2.4 0.05m-4.4-10.5l0.75-1.4-0.95 0.05q0.10078 0.68965 0.2 1.35m11.4 1.55l-1.55-3.1-9.1 0.15-0.75 1.4q0.425 2.115 1 3.95l9.75-0.25q0.39902-1.0277 0.65-2.15m-1.55-3.1l1.55 3.1q0.38496-1.5104 0.55-3.15l-2.1 0.05z" fill="#ccc"/>
   <path d="m38.8 36.75q-0.14219 0-0.3 0-6.8086-0.16562-13.5-2.45-2.9912 5.775 2.35 11.5l6.15-0.1 0.95-0.05 2.4-4.45q-2.9076-1.983-5.95-3.75-0.76777-0.4252-1.6-0.55-4.4396-0.37559-3.4 3.15 0.54238 1.6752 2.45 1.7 2.6895 0.075195 0.1-1.8 2.5895 1.8752-0.1 1.8-1.9076-0.024805-2.45-1.7-1.0396-3.5256 3.4-3.15 0.83223 0.1248 1.6 0.55 3.0424 1.767 5.95 3.75l2.35-4.45q-0.15078-0.0011719-0.3 0h-0.1m4.75 8.75l-2.15-4.35-2.2-4.4-2.35 4.45-2.4 4.45 9.1-0.15 2.1-0.05 5.9-0.15q5.2324-4.4986 2.95-11-7.7365 2.5176-15.3 2.45l2.2 4.4q3.0836-0.3248 4.85-2.3 1.7283-1.8754 4.1-1.65 3.8457 0.37441 0.25 3.55-3.1564 2.826-3.35-0.95 1.3697 0.175 2.15-0.25-0.78027 0.425-2.15 0.25 0.19355 3.776 3.35 0.95 3.5957-3.1756-0.25-3.55-2.3717-0.22539-4.1 1.65-1.7664 1.9752-4.85 2.3l2.15 4.35z" fill="#666"/>
   <path d="m41.3 35.7q1.05-1.05 1.05-2.5t-1.05-2.5-2.5-1.05-2.5 1.05-1.05 2.5 1.05 2.5q0.94707 0.94707 2.2 1.05 0.15781 0 0.3 0h0.1q0.16543-0.0042969 0.3-0.05 1.2072-0.10723 2.1-1z" fill="url(#p)"/>
  </g>
  <g id="x">
   <path d="m39.45 29.8q0.35801 0.087891 0.8-0.25 0.85-0.65 0.3-1.6-0.6-1-1.4-0.35-0.14277 0.125-0.25 0.25-0.38535-0.095703-0.85 0.1-0.9 0.4-0.2 1.4 0.65 1.05 1.6 0.45m-23.65-28.3q1.1-0.6 0.15-1.45-0.95-0.8-1.65-0.3-0.7 0.55-0.2 1.45 0.55 0.9 1.7 0.3m18.85 21.9q0.14141 0.23145 0.3 0.35 0.033203 0.30508 0.2 0.6-0.46367 0.44473 0.1 1.25 0.060547 0.097852 0.1 0.15v0.05q-0.75 0.6-0.55 1.6 0.078125 0.31211 0.25 0.45 0.033984 0.13125 0.1 0.25 0.55 0.9 1.7 0.3 1.1-0.6 0.15-1.45-0.069922-0.058789-0.15-0.1 0.0058594-0.30684-0.2-0.65l-0.05-0.05q0.13887-0.029883 0.25-0.1 0.9-0.55 0.2-1.4-0.090039-0.11758-0.2-0.2 0.40684-0.54062 0-1.25 0.24434-0.41836-0.35-0.95-0.95-0.8-1.65-0.3-0.7 0.55-0.2 1.45m-4.65-4.5q0.042188 0.067383 0.1 0.15 0.48164 0.77812 1.1 0.65 0.0039062 0.375 0.25 0.8 0.28477 0.54121 0.65 0.55-0.098438 0.4082 0 0.9 0.25 1 1.35 0.4t0.5-1.6q-0.30156-0.54824-0.7-0.65 0.1457-0.38945-0.15-0.9-0.41191-0.68652-0.95-0.6 0.016406-0.036523 0-0.1 0.16719-0.39238-0.4-0.9-0.95-0.8-1.65-0.3-0.7 0.55-0.2 1.45 0.045703 0.074609 0.1 0.15m-0.85-5.25q-0.62734 0.50195-0.6 1.25-0.66738 0.70625-0.15 1.6 0.5 0.95 1.35 0.3 0.7127-0.54492 0.45-1.3 0.77734-0.5709 0.25-1.45-0.55-1-1.3-0.4m-2.4-2.15q-0.5082 0.22578-0.5 0.65-0.4875 0.5125-0.05 1.3 0.55 0.9 1.7 0.3 0.56348-0.30723 0.6-0.7 0.38262-0.45332-0.15-1.1-0.65-0.85-1.6-0.45m-2.25-0.95q-0.75 0.6-0.55 1.6 0.25 1 1.35 0.4t0.5-1.6q-0.55-1-1.3-0.4m-3.75-5.05q-0.040234-0.15605-0.2-0.35-0.39414-0.51543-0.9-0.6 0.28809-0.4291-0.35-1-0.75059-0.63203-1.35-0.45 0.064844-0.14609 0.05-0.3 0.36738 0.37695 1.15-0.05 1.1-0.6 0.5-1.6-0.55-1-1.3-0.4-0.60684 0.48555-0.6 1.2-0.57754-0.87754-1.35-0.25-0.8 0.7-0.25 1.65 0.4293 0.81562 1.1 0.45-0.080078 0.3959 0.2 0.9 0.36758 0.60137 1 0.5-0.058594 0.3877 0.3 0.9 0.58418 0.94355 1.4 0.55-0.0023438 0.23848 0.05 0.5 0.2125 0.84961 1.05 0.55 0.044336 0.16738 0.15 0.35 0.3375 0.64102 0.8 0.55 0.33379 0.45312 0.8 0.45 0.074805 0.2498 0.25 0.5 0.15859 0.25625 0.3 0.4 0.52949 0.87754 1.35 0.25 0.85-0.65 0.3-1.6-0.33281-0.55449-0.75-0.6-0.048633-0.28555-0.4-0.6-0.48867-0.41152-0.9-0.5-0.049805-0.063281-0.1-0.15-0.40254-0.6707-0.9-0.6-0.038477-0.097461-0.1-0.2-0.53672-0.97578-1.3-0.45m20.35 18.2q-0.2666 0.033203-0.5 0.2-0.7 0.55-0.2 1.45 0.12598 0.20625 0.25 0.3-0.16484 0.47578-0.05 1.05 0.25 1 1.35 0.4t0.5-1.6l-0.05-0.05q0.19219-0.1625 0.25-0.35 0.17344-0.038477 0.35-0.15 0.9-0.55 0.2-1.4-0.65-0.85-1.6-0.45-0.48867 0.21719-0.5 0.6m2.7-3.35q-0.024609-0.11992-0.1-0.25-0.6-1-1.4-0.35-0.8 0.7-0.25 1.65 0.38281 0.72734 0.95 0.5 0.03125 0.10645 0.05 0.2 0.25 1 1.35 0.4 0.53438-0.29141 0.65-0.7 0.49648 0.21699 1.2-0.15 1.1-0.6 0.15-1.45-0.95-0.8-1.65-0.3-0.25215 0.19805-0.35 0.45-0.26934-0.14531-0.6 0m3.8-2.6q-0.6-1-1.4-0.35-0.24902 0.21777-0.4 0.45-0.58379-0.66465-1.45-0.3-0.9 0.4-0.2 1.4 0.65 1.05 1.6 0.45 0.1666-0.10176 0.25-0.25 0.51504 0.8002 1.3 0.2 0.85-0.65 0.3-1.6m-1.25-0.5q1.1-0.6 0.5-1.6-0.55-1-1.3-0.4t-0.55 1.6q0.25 1 1.35 0.4m5.7-7.55q-0.5791 0.46328-0.6 1.15-0.23281 0.044922-0.45 0.2-0.33301 0.26152-0.4 0.6-0.42988-0.27266-0.95 0.15-0.61484 0.53789-0.45 1.2-0.22871 0.035742-0.5 0.15-0.9 0.4-0.2 1.4 0.1125 0.18164 0.2 0.3-0.3584 0.51504 0.05 1.25 0.55 0.9 1.7 0.3 1.1-0.6 0.15-1.45-0.11094-0.093359-0.25-0.2 0.40469-0.34863 0.15-0.85 0.12402-0.053711 0.25-0.15 0.46582-0.35625 0.5-0.8 0.50449 0.23887 1.25-0.15 0.89766-0.48965 0.4-1.15 1.0275-0.5875 0.45-1.55-0.55-1-1.3-0.4m4-3.95q0.85-0.65 0.3-1.6 0.26484-0.019922 0.55-0.2 0.9-0.55 0.2-1.4-0.65-0.85-1.6-0.45-0.9 0.4-0.2 1.4 0.024023 0.038672 0.05 0.05-0.19434 0.082812-0.4 0.25-0.35312 0.30898-0.45 0.65-0.57832-0.23691-1.05 0.1-0.7 0.55-0.2 1.45 0.36758 0.60156 1 0.5-0.53164 0.51992-0.5 1.25-0.059961 0.24629 0 0.5-0.12168 0.045898-0.25 0.1-0.9 0.4-0.2 1.4 0.65 1.05 1.6 0.45 0.75664-0.4623 0.35-1.15h0.05q0.65625-0.50176 0.45-1.2 0.24492-0.4252-0.1-1-0.27891-0.50723-0.6-0.6 0.18086-0.11855 0.3-0.25 0.3127 0.046094 0.7-0.25m-59.5-28.5q-0.025977-0.033789-0.1-0.1-0.95-0.8-1.65-0.3-0.7 0.55-0.2 1.45 0.55 0.9 1.7 0.3 0.04375-0.023828 0.05-0.05 0.065039 0.050195 0.1 0.1 0.5207 0.84121 1.2 0.6 0.016016 0.061133 0 0.1-0.25566 0.010938-0.55 0.25-0.8 0.7-0.25 1.65 0.47266 0.89785 1.25 0.35 0.44609 0.11504 1.05-0.2 0.93789-0.51152 0.35-1.2 0.32539-0.47422-0.05-1.1-0.39863-0.725-0.9-0.6 0.058203-0.36523-0.3-0.8-0.65-0.85-1.6-0.45-0.033594 0.014844-0.1 0m-1.2-3.15q-0.6-1-1.4-0.35-0.8 0.7-0.25 1.65-0.325-0.1-0.7 0.2-0.75 0.6-0.55 1.6 0.25 1 1.35 0.4t0.5-1.6l-0.05-0.05q0.36348 0.083789 0.8-0.25 0.85-0.65 0.3-1.6m-6.95-4.2q0.0089844 0.38379 0.25 0.8 0.35645 0.67715 0.9 0.55-0.15117 0.39453-0.05 0.9 0.22773 0.91113 1.15 0.5 0.061914 0.1416 0.15 0.3 0.35391 0.5793 0.95 0.5 0.64082 0.97422 1.55 0.4 0.9-0.55 0.2-1.4-0.32891-0.43027-0.75-0.55-0.038086-0.044531-0.1-0.1-0.62109-0.52285-1.15-0.5-0.037891-0.16328-0.15-0.35-0.34199-0.62188-0.8-0.65 0.35391-0.43809-0.15-1.05-0.65-0.85-1.6-0.45-0.76602 0.34043-0.4 1.1m-2-2.35q-0.38711-0.31035-0.9 0.1-0.75 0.6-0.55 1.6 0.25 1 1.35 0.4 0.50195 0.24023 1.25-0.15 1.1-0.6 0.15-1.45-0.70215-0.59141-1.3-0.5m0.05-3.45q-0.6-1-1.4-0.35-0.094141 0.082422-0.2 0.15-0.009375 0.032812-0.05 0.05-0.65312 0.29023-0.5 0.9-0.05918-0.12402-0.2-0.25-0.95-0.8-1.65-0.3-0.7 0.55-0.2 1.45 0.55 0.9 1.7 0.3 0.66191-0.36094 0.55-0.8 0.060547 0.043555 0.1 0.1 0.65 1.05 1.6 0.45 0.65078-0.39766 0.45-0.95 0.031836-0.34961-0.2-0.75m-6.6-5.15q1.0318-0.58027 0.45-1.55-0.55-1-1.3-0.4-0.72031 0.57617-0.6 1.5-0.085547 0.068164-0.2 0.15-0.7 0.55-0.2 1.45 0.55 0.9 1.7 0.3 1.0912-0.59531 0.15-1.45m3.2 2.05q-0.49961-0.52852-1.15 0-0.26836 0.23496-0.4 0.5-0.056055-0.21445-0.25-0.45-0.65-0.85-1.6-0.45-0.9 0.4-0.2 1.4 0.65 1.05 1.6 0.45 0.26562-0.1623 0.4-0.35 0.033984 0.26309 0.2 0.55 0.3623 0.68848 0.9 0.5 0.35996 0.43086 1.15 0 1.1-0.6 0.5-1.6-0.48711-0.88574-1.15-0.55m102.1-3.6q-0.65-0.85-1.6-0.45-0.9 0.4-0.2 1.4 0.33281 0.5377 0.75 0.65-0.03125 0.33398 0.2 0.75 0.55 0.9 1.7 0.3 1.1-0.6 0.15-1.45-0.36875-0.31055-0.7-0.45 0.049805-0.3252-0.3-0.75m9.8-17.05q0.85-0.65 0.3-1.6-0.6-1-1.4-0.35-0.8 0.7-0.25 1.65 0.5 0.95 1.35 0.3m-4.1 6.75q-0.6-1-1.4-0.35-0.022266 0.019531-0.05 0.05-0.42617-0.17051-0.95 0.05-0.9 0.4-0.2 1.4 0.061914 0.1 0.1 0.15 0.3373 0.45137 0.7 0.5-0.2584 0.027539-0.5 0.2-0.40176 0.31562-0.4 0.75-0.26641 0.019727-0.55 0.25-0.77852 0.68105-0.3 1.6-0.35664-0.086719-0.8 0.1-0.75098 0.33379-0.4 1.05-0.4291-0.065039-0.8 0.2-0.56836 0.44648-0.35 1.1-0.047266 0.057812-0.1 0.1-0.75 0.6-0.55 1.6 0.25 1 1.35 0.4 0.072852-0.039648 0.15-0.1 0.73281-0.45391 0.5-1.15 0.23965-0.064062 0.5-0.2 0.16211-0.088477 0.25-0.2 0.4584-0.32109 0.3-0.75 0.25879-0.016016 0.55-0.2 0.86855-0.53066 0.25-1.35 0.25195-0.02207 0.55-0.25 0.5457-0.41719 0.5-0.95 0.38398-0.0068359 0.85-0.25 1.1-0.6 0.15-1.45-0.50527-0.42559-0.95-0.5 0.15117 0.0066406 0.3-0.05 0.425 0.28965 1-0.15 0.85-0.65 0.3-1.6m-0.55-2.1q0.175 0.7002 0.75 0.6 0.56582 0.68965 1.6 0.15 1.1-0.6 0.15-1.45-0.29844-0.25117-0.6-0.4 0.0039062-0.024023-0.05-0.1 0.53652 0.41895 1.2 0 0.9-0.55 0.2-1.4-0.65-0.85-1.6-0.45-0.86113 0.38281-0.25 1.3-0.39121-0.21699-0.85 0.15-0.75 0.6-0.55 1.6m-24.15 47.4q1.1-0.6 0.15-1.45-0.95-0.8-1.65-0.3-0.18027 0.1416-0.3 0.3-0.31387-0.10898-0.7 0.2-0.31465 0.25176-0.45 0.55-0.46055-0.28828-1 0.15-0.68457 0.59902-0.4 1.35-0.54668 0.44746 0.05 1.3 0.65 1.05 1.6 0.45 0.9-0.55 0.2-1.4-0.019336-0.025391-0.05-0.05 0.060547-0.061133 0.1-0.15 0.29805 0.046484 0.75-0.2 0.44141-0.24082 0.6-0.55 0.46211 0.13281 1.1-0.2m4.15-8.65q-0.65-0.85-1.6-0.45-0.7082 0.31484-0.45 1-0.45293-0.13359-0.85 0.15-0.66621 0.52344-0.25 1.35-0.34746-0.077148-0.75 0.25-0.8 0.7-0.25 1.65 0.038867 0.073828 0.05 0.15-0.15371 0.017383-0.35 0.1-0.9 0.4-0.2 1.4 0.65 1.05 1.6 0.45 0.9-0.55 0.2-1.4-0.10156-0.13281-0.2-0.25 0.11543-0.04707 0.25-0.15 0.15215-0.11641 0.25-0.25 0.36152 0.19824 1-0.15 1.1-0.6 0.5-1.6l-0.05-0.05q0.34609-0.25508 0.25-0.6 0.3207 0.0080078 0.65-0.2 0.9-0.55 0.2-1.4m-1.3-2.6q-0.6-1-1.4-0.35-0.8 0.7-0.25 1.65 0.5 0.95 1.35 0.3t0.3-1.6m1.9 0.7q1.1-0.6 0.5-1.6-0.55-1-1.3-0.4t-0.55 1.6q0.25 1 1.35 0.4m-10.6 12.9q-0.7 0.55-0.2 1.45 0.20078 0.32852 0.45 0.45-0.64062 0.59688-0.45 1.55 0.048047 0.19238 0.1 0.3-0.26699-0.0015625-0.6 0.1 0.35156-0.50645-0.05-1.2-0.6-1-1.4-0.35-0.8 0.7-0.25 1.65 0.44473 0.84492 1.15 0.4-0.078125 0.35938 0.2 0.85-0.75117-0.52773-1.35-0.1-0.21855 0.17168-0.35 0.35-0.058594 0.076758-0.15 0.15-0.75 0.6-0.55 1.6 0.25 1 1.35 0.4 0.43066-0.23496 0.6-0.55 0.27656-0.03125 0.6-0.2 0.77266-0.42148 0.5-1 0.48965 0.25391 1.05-0.1 0.9-0.55 0.2-1.4-0.12812-0.16758-0.3-0.3 0.27969-0.025391 0.6-0.2 1.1-0.6 0.5-1.6-0.14824-0.26934-0.3-0.45 0.068164-0.0074219 0.15-0.05 1.1-0.6 0.15-1.45-0.95-0.8-1.65-0.3m14.55-25.25q-0.8 0.7-0.25 1.65 0.31191 0.59258 0.75 0.55-0.044141 0.026562-0.1 0.05-0.87363 0.38828-0.25 1.35-0.66719-0.38066-1.2 0-0.7 0.55-0.2 1.45 0.14766 0.2416 0.35 0.35-0.26641 0.023047-0.55 0.25-0.75 0.6-0.55 1.6 0.11855 0.47422 0.4 0.6 0.032227 0.09082 0.05 0.15-0.50273-0.27246-1.15 0-0.66816 0.29707-0.45 0.9 0.069727 0.24258 0.25 0.5 0.65 1.05 1.6 0.45 0.56562-0.3457 0.5-0.8 0.047852 0.012695 0.1 0 0.31211 0.04668 0.7-0.25 0.85-0.65 0.3-1.6-0.12227-0.20371-0.25-0.35 0.067188-0.35488-0.2-0.8-0.17266-0.31387-0.35-0.5 0.39746 0.088281 0.95-0.2 0.83828-0.45723 0.45-1.05 0.43145 0.095898 0.9-0.2 0.9-0.55 0.2-1.4-0.50879-0.66523-1.2-0.6 0.14336-0.030273 0.3-0.15 0.85-0.65 0.3-1.6-0.6-1-1.4-0.35m5.25-5.95q-0.5541 0.43535-0.35 1.1-0.48613-0.59102-1.1-0.1-0.75 0.6-0.55 1.6 0.066992 0.26758 0.2 0.4-0.069727 0.3582 0.1 0.7-0.19707 0.064648-0.4 0.15-0.78809 0.3502-0.35 1.15-0.34785-0.01582-0.65 0.2-0.7 0.55-0.2 1.45 0.12383 0.20254 0.25 0.3-0.096484 0.41797 0 0.9 0.25 1 1.35 0.4t0.5-1.6q0.32812-0.34805 0.05-0.8 0.23438-0.013867 0.45-0.15 0.85879-0.5248 0.25-1.35 0.10312-0.025977 0.2-0.1 0.85-0.65 0.3-1.6-0.053516-0.089258-0.1-0.2 0.20195-0.31406 0.05-0.75 0.53867 0.55156 1.5 0.05 1.1-0.6 0.15-1.45-0.95-0.8-1.65-0.3m0.65-2.95q-0.76582 0.39863-0.1 1.35 0.65 1.05 1.6 0.45 0.5877-0.35918 0.5-0.85 1.1-0.6 0.5-1.6-0.36895-0.6707-0.85-0.65-0.55137-0.8082-1.3-0.2-0.73203 0.64062-0.35 1.5m-63.1 38.15q-0.65-0.85-1.6-0.45-0.9 0.4-0.2 1.4 0.65 1.05 1.6 0.45 0.9-0.55 0.2-1.4m-3.6 0.5q0.11387-0.087109 0.2-0.2 1.0354-0.57441 0.45-1.55-0.5252-0.95488-1.25-0.45-0.23008 0.030664-0.5 0.25-0.8 0.7-0.25 1.65 0.5 0.95 1.35 0.3m-2.5-3.95q-0.9 0.4-0.2 1.4 0.65 1.05 1.6 0.45 0.9-0.55 0.2-1.4-0.65-0.85-1.6-0.45m-1.8-3q-0.29609-0.0375-0.65 0.25-0.8 0.7-0.25 1.65 0.5 0.95 1.35 0.3v-0.05q0.15547-0.021094 0.3-0.1 0.33105-0.18047 0.5-0.4 0.53359 0.40195 1.4-0.05 1.1-0.6 0.15-1.45-0.95-0.8-1.65-0.3-0.11504 0.09043-0.2 0.2-0.41621-0.41719-0.95-0.05m-2.7-5.3q-0.61465-0.79375-1.55-0.4-0.9 0.4-0.2 1.4 0.20176 0.32598 0.4 0.5-0.38906 0.5916 0.05 1.35 0.5 0.95 1.35 0.3 0.056836-0.043555 0.1-0.1 0.054102 0.088477 0.1 0.15 0.07207 0.27422 0.3 0.6 0.65 1.05 1.6 0.45 0.88203-0.53906 0.2-1.4 0.25664-0.40723-0.35-0.95-0.48477-0.4082-0.9-0.5 0.11641-0.027148 0.25-0.1 1.1-0.6 0.5-1.6-0.55-1-1.3-0.4-0.38633 0.30898-0.55 0.7m0.35 1.55q-0.070898-0.11836-0.15-0.25 0.13125 0.16562 0.3 0.2-0.066406 0.041211-0.15 0.05m-6.05-4.35q0.9-0.55 0.2-1.4-0.65-0.85-1.6-0.45-0.9 0.4-0.2 1.4 0.65 1.05 1.6 0.45m2-0.75q0.85-0.65 0.3-1.6-0.6-1-1.4-0.35-0.8 0.7-0.25 1.65 0.11328 0.21523 0.25 0.35-0.076562 0.041211-0.15 0.1-0.75 0.6-0.55 1.6 0.17441 0.69785 0.75 0.6-0.26738 0.48887 0.1 1.15 0.55 0.9 1.7 0.3 1.1-0.6 0.15-1.45-0.50977-0.4293-0.95-0.5 0.56758-0.5207 0.1-1.3-0.13633-0.24785-0.3-0.4 0.12891-0.057422 0.25-0.15z" fill="#ccc"/>
  </g>
  <g id="s">
   <path d="m46.15-25.65q-8.45-4.35-16.65-7.5-36.25-13.95-67.35-5-5.55 2.3-10.65 5-44.45 23.45-52.65 74.65l202.25-8.5q-11.45-39.85-54.95-58.65z" fill="#fc9"/>
  </g>
  <g id="ab">
   <path d="m100.05-152q-0.14238-16.171-4.1-29.05l-197.05-11.85q-10.25 28.991-6.85 51.9-1.5979 2.8695-2.5 5.7 34.313-19.191 31.5-0.7-27.842 1.4789-30.85 17.05 0.9502 2.2312 2.35 4.45-8.4094 66.5 30.95 141.8-4.999-18.652 4.05-37.3 20.738 37.45 33.5 41 4.5-6.6 0-15l-11.5-18q23.214 8.9305 46-7.5-5.5 15.75-11 27-5.143 7 0 14 28.669-13.709 37-57 19.862 26.911 19.5 57.5-1.9281 5.3471-4.55 9.95 18.133-8.7002 28.55-19.45 34.307-43.25 37-86.5 16.196-3.7854 16.5-17.5-1.6975-8.0658 2.5-20-2.9041-10.782 0.5-23.5-4.9287-4.3566-5.5-14.5-4.307-17.329-16-12.5l-10.5 21.5 10.5-21.5m6.5 14q0.047852 6.7381 4 12.5 6.0031 10.204 2.75 21.25 3.2531-11.046-2.75-21.25-3.9521-5.7619-4-12.5m-12.25 23q1.6297 9.7422 7 13.75-2.55 9.5-0.75 18.25-1.8-8.75 0.75-18.25-5.3703-4.0078-7-13.75m20.75-5q0.0068359-12.169-5.5-22.5-11.1 1.2502-16.5 21.5 5.4002-20.25 16.5-21.5 5.5068 10.331 5.5 22.5m-14.5 0.75q15.027 2.7535 4.5 16 10.527-13.246-4.5-16m-99.65-13.8q6.0963-1.4529 12.8 0.15 6.3998 1.5648 13.35 5.9-5.7934 3.3371-13.35 5.15-4.902 1.2006-10.55 1.75-9.2941 0.91484-20.6 0.1 8.3471-10.665 18.35-13.05m103.4 51.05q4.4064 5.5104 0 12 4.4064-6.4896 0-12m-85.5-20q-32.682 19.982 0 51.5-32.682-31.518 0-51.5m-87.75-15.45q3.9531 2.1061 7 4.95-6.0418 3.048-11.1 4.7-3.026 0.98711-4.65 1.25-10.237 1.9316-15.25-2.3-1.7561-1.4471-2.65-3.3 1.4912-1.7066 3.3-2.8 3.7049-2.2475 7.2-3.45 8.7615-2.9143 16.15 0.95m39.5-14.55q-8.0783 13.141-5 30-3.0783-16.859 5-30m9-9.5q-11.227 2.7822-7.5-10.5 35.16-14.093 74 5-35.075-3.6379-66.5 5.5m-3.3 77.6q-0.15 0.55-0.65 0.6-1.95 0.15-3.85 0.35-3.9 0.3-7.9 0.1-0.2-0.05-0.45-0.2-0.096484-0.34746-0.05-0.6-1.616 0.70352-3.3 1.65 1.684-0.94648 3.3-1.65 0.12812-0.33867 0.65-0.4 0.3252-0.033398 0.65-0.1 4.9408-1.718 9.45-1 0.64668 0.13086 1.25 0.3 0.31348 0.069922 0.6 0.15 2.8969 0.8123 5.6 2.7 5.6982-0.051758 7.5-4 2.6803-18.351-16-19.5 18.68 1.1486 16 19.5-1.8018 3.9482-7.5 4-2.7031-1.8877-5.6-2.7l-0.1 0.1 0.05 0.05q0.35 0.25 0.35 0.65m-40.75 2.55q0.15-0.05 0.3-0.05v-0.05q0.73652-0.060156 1.35 0.05 1.1338 0.11992 2.55 0.75-4.9258-4.6646-4.7-12.35l0.3-2.5q-17.85 13.734 4.75 22-22.6-8.2664-4.75-22l5.2-44.4q-19.05-14.15-39.5 2.5 20.45-16.65 39.5-2.5l-5.2 44.4-0.3 2.5q-0.22578 7.6854 4.7 12.35 0.083398 0.079492 0.15 0.15 5.5016 5.0771 17.2 6.5l3.5 14.25-3.5-14.25q-11.698-1.4229-17.2-6.5l-0.15 0.2q0.33867 0.2457 0.5 0.75 0.05 0.1 0.05 0.15-0.91543 1.4822-2.4 0.65-0.67871-0.036719-1.5-0.55-0.45-0.3-0.95-0.5-0.25-0.1-0.5-0.25 0-0.1-0.05-0.2-0.05-0.3 0.05-0.55 0.017383-0.060742 0.05-0.15-0.68672 0.47188-1.15 1.3 0.46328-0.82812 1.15-1.3 0.11074-0.22598 0.4-0.35 0.05-0.05 0.15-0.05m-2.95 44.35q2.8232-6.3715 13.8-11.25 11.021-4.8295 18.95-3.75 3.1859-6.7428 46.5-4.25-19.961 27.394-41.25 25.5-23.454 11.723-38-6.25m30.5-38l5.5 14-5.5-14m-9 5v12.25-12.25m-51.5-54q0 7 12 13-12-6-12-13m25.75 56.5l-10.5 19 10.5-19m48.25-75q20.617-30.869 57-10.5-36.383-20.369-57 10.5z" fill="#fc9"/>
   <path d="m-67.45-17q14.546 17.973 38 6.25 21.289 1.8941 41.25-25.5-54.147 23.149-79.25 19.25m13.8-11.25q-10.977 4.8785-13.8 11.25 25.103 3.8994 79.25-19.25-43.314-2.4928-46.5 4.25-7.9285-1.0795-18.95 3.75z" fill="#f66"/>
   <path d="m-61.15-60.55q-0.70762-0.63398-1.7-0.85-0.61348-0.11016-1.35-0.05v0.05q-0.15 0-0.3 0.05-0.1 0-0.15 0.05-0.28926 0.12402-0.4 0.35-0.032617 0.089258-0.05 0.15-0.1 0.25-0.05 0.55 0.05 0.1 0.05 0.2 0.25 0.15 0.5 0.25 0.5 0.2 0.95 0.5 0.82129 0.51328 1.5 0.55 1.4846 0.83223 2.4-0.65 0-0.05-0.05-0.15-0.16133-0.5043-0.5-0.75-0.036719-0.025977-0.1-0.05-0.29336-0.18789-0.75-0.2m34.2-4.4q-0.55 0.15-1.2 0.2-3.6207 0.275-7.2 0.6-0.3248 0.066602-0.65 0.1-0.52188 0.061328-0.65 0.4-0.046484 0.25254 0.05 0.6 0.25 0.15 0.45 0.2 4 0.2 7.9-0.1 1.9-0.2 3.85-0.35 0.5-0.05 0.65-0.6 0-0.4-0.35-0.65l-0.05-0.05q-0.21387-0.14258-0.5-0.25-0.60332-0.16914-1.25-0.3-0.49961 0.033203-1.05 0.2m-49.7-54.35q-1.45 0-2.45 1t-1 2.45 1 2.45 2.45 1 2.45-1 1-2.45-1-2.45-2.45-1m86.65-10.95q-0.9-0.9-2.25-0.9t-2.3 0.9q-0.9 0.95-0.9 2.3t0.9 2.25q0.95 0.95 2.3 0.95t2.25-0.95q0.95-0.9 0.95-2.25t-0.95-2.3z"/>
   <path d="m-27.95-152q-3.7273 13.282 7.5 10.5 31.425-9.1379 66.5-5.5-38.84-19.093-74-5m-82.5 16.7q-2.6561 8.3281 0.65 16.35 3.0078-15.571 30.85-17.05 2.8131-18.491-31.5 0.7m146.95 177.25q2.6219-4.6029 4.55-9.95 0.3625-30.589-19.5-57.5-8.3314 43.291-37 57-5.143-7 0-14 5.5-11.25 11-27-22.786 16.43-46 7.5l11.5 18q4.5 8.4 0 15-12.762-3.5498-33.5-41-9.049 18.648-4.05 37.3 1.4529 5.3482 4.05 10.7 26.25 34.163 53.2 33.25 40.167-1.8916 55.75-29.3z" fill="url(#q)"/>
   <path d="m-92.95-108.85q-1.7953-3.0375 0.65-6.1-1.8088 1.0934-3.3 2.8 0.89395 1.8529 2.65 3.3z" fill="#c30"/>
   <path d="m-85.1-118.4q-3.4951 1.2025-7.2 3.45-2.4453 3.0625-0.65 6.1 5.0131 4.2316 15.25 2.3-9.733-1.7141-7.4-11.85m23.15 5.9q-3.0469-2.8439-7-4.95 0.98613 5.3227-4.1 9.65 5.0582-1.652 11.1-4.7m62.85-20.55q-10.003 2.3846-18.35 13.05 11.306 0.81484 20.6-0.1-8.4137-5.0172-2.25-12.95m12.8 11.2q7.5566-1.8129 13.35-5.15-6.9502-4.3352-13.35-5.9 3.7646 6.0205 0 11.05z" fill="#fff"/>
   <path d="m-77.7-106.55q1.624-0.26289 4.65-1.25 5.0861-4.3273 4.1-9.65-7.3885-3.8643-16.15-0.95-2.333 10.136 7.4 11.85m-1.4-11.75q1-1 2.45-1t2.45 1 1 2.45-1 2.45-2.45 1-2.45-1-1-2.45 1-2.45m92.8-14.6q-6.7037-1.6029-12.8-0.15-6.1637 7.9328 2.25 12.95 5.648-0.54941 10.55-1.75 3.7646-5.0295 0-11.05m-5.95 1.75q1.35 0 2.25 0.9 0.95 0.95 0.95 2.3t-0.95 2.25q-0.9 0.95-2.25 0.95t-2.3-0.95q-0.9-0.9-0.9-2.25t0.9-2.3q0.95-0.9 2.3-0.9z" fill="#06c"/>
  </g>
  <path id="t" d="m-22.5-42.5q-0.095312-10.914-7.5-20 5.4787-6.3826 5.5-25.5 51.261-48.642 112.5 0.5l5.5 28.5q-2.3719 9.6574-1.95 17.1 0.50371 9.2889 1.95 15.9-18.995 25.093-29.925 55.025m-31.425 56.025q-6.0781-37.132-35.15-83.55-5.0527-17.357-15.975-37.65-1.6943-3.1406-3.525-6.35m9.1 9.65q42.507 23.29 94.175-3.075 5.3438-2.7246 10.775-5.975m63 2.4q50.898 5.8777 89.95 31.5 9.5244 8.2908 22.45 71 25.61 30.555 27 49 21.014 16.791 17 45h-263.65v0.6m-60.7-190.45q-2.8021-1.5406-5.575-3.3m-54.275-16.025q-32.599 1.7582-68.75 14.175-13.842 18.868-37 28-6.215 26.821-22 51-18.181 19.259-27 51-15.486 48.388-27 65h99q13.838-34.768 18-72m359.95 20l10 52m-184.7-6.75l0.05 6.75h-203.3m219.58-127.98q16.893-21.571 44.475-26.525 27.769-20.609 46.5-42-17.925-8.2102-27-23.5-10.543-28.164-26-46.5-36.815-27.688-71.025-32.4-32.64 3.6125-68.85 31.3-15.191 18.336-25.55 46.5-3.8721 6.6256-9.375 11.925-7.2045 6.9227-17.2 11.575 18.431 21.391 45.75 42 38.233 6.9832 55.55 47 12.246 11.55 21.3 36.65m31.425-56.025q-6.9049 8.8441-12.025 20.475-7.3293 33.413-4.3 100.75-5.8938-39.628-15.1-65.2" fill="none" stroke="#000" stroke-linecap="round" stroke-linejoin="round"/>
  <path id="u" d="m147.5-36.5q-16.856 18.214-39.5 34.5m-193-36.5q19.339 21.145 40.5 35m83.725 40.25q7.5385 0.067578 15.275-2.425 2.2824 6.4764-2.95 11-0.8418 2.7604-1.775 5.3-0.78301 2.0871-1.625 4.025-0.61504 1.4273-1.275 2.775-3.2129 6.6604-7.3 11.4-4.4922-5.4545-7.525-11.15-1.0383-1.933-1.9-3.9-0.5623-1.2939-1.05-2.6-1.0135-2.6502-1.725-5.35-5.3662-5.75-2.35-11.5 6.6664 2.2594 13.5 2.425 0.13281 0 0.275 0m6.325 11.85q0.35996-1.5104 0.55-3.15l-2.125 0.05m-4.35-8.75h0.025m-4.775 8.925l9.1-0.175m2.125-0.05l5.875-0.125m-12.65-8.575q0.14922-0.0011719 0.3 0m-4.75 8.925l-0.95 0.025q0.10078 0.68965 0.225 1.35 0.4 2.115 1 3.975m9.75-0.25q0.37402-1.0527 0.65-2.175m-17.75-2.775l6.125-0.125m4.6 11.875q0.51406 0.65391 1.075 1.25 0.70801-0.61562 1.35-1.3m-2.425 0.05q-2.1174-2.7291-3.375-6.55m9.75-0.25q-1.3266 3.9135-3.95 6.75m-29.025-3.025q22.463 31.035 32 102.5m23.5-122.5q-20.063 26.527-14.5 122.5m-13.975-120.25q-1.2779-0.10293-2.225-1.05-1.05-1.05-1.05-2.5t1.05-2.5 2.5-1.05 2.5 1.05 1.05 2.5-1.05 2.5q-0.89277 0.89277-2.075 1.025m-0.425 0.025h0.1q0.16543-0.0042969 0.325-0.025" fill="none" stroke="#000" stroke-linecap="round" stroke-linejoin="round" stroke-width=".05"/>
  <path id="v" d="m45.125 48.6l-1.575-3.1-2.15-4.35-2.175-4.4m-0.025 0l-2.35 4.45-2.4 4.475m14.95-6.1q-0.78027 0.4-2.15 0.25 0.19355 3.751 3.375 0.95 3.5707-3.2006-0.25-3.55-2.3967-0.25039-4.125 1.65-1.7664 1.9502-4.85 2.275m-4.55 0.05q-2.9076-1.983-5.925-3.725-0.79277-0.4502-1.625-0.55-4.4396-0.40059-3.375 3.15 0.51738 1.6502 2.45 1.7 2.6645 0.050195 0.1-1.8m5.25 7.075l0.725-1.375m0.275 5.35l9.75-0.25m0.65-2.175l1.05 2.125 3.6-0.1m-9.25 6.9l-2.425 0.05m-3.375-6.55l-3.15 0.075-1.425 2.675m1.9 3.9l6.05-0.1m-6.525-6.475l-2.475 0.075m19.05 3.475l-1.975-3.925-1.7 0.05m-3.95 6.75l6.35-0.1m-13.15-10.375l-2.15 4.05" fill="none" stroke="#ccc" stroke-linecap="round" stroke-linejoin="round"/>
  <path id="r" d="m101.1 33q-11.45-39.85-54.95-58.65-8.45-4.35-16.65-7.5-36.25-13.95-67.35-5-5.55 2.3-10.65 5-44.45 23.45-52.65 74.65" fill="none" stroke="#000" stroke-linecap="round" stroke-linejoin="round"/>
  <path id="y" d="m100.05-152q-0.14238-16.171-4.1-29.05m-197.05-11.85q-10.25 28.991-6.85 51.9-1.5979 2.8695-2.5 5.7m0.675 16.35q0.9252 2.2312 2.325 4.45-8.4094 66.5 30.975 141.8-5.024-18.652 4.025-37.3 20.738 37.45 33.5 41 4.5-6.6 0-15l-11.5-18q23.214 8.9305 46-7.5-5.5 15.75-11 27-5.143 7 0 14 28.669-13.709 37-57 19.862 26.911 19.5 57.5-1.9281 5.3471-4.55 9.975 18.133-8.7252 28.55-19.475 34.307-43.25 37-86.5 16.196-3.7854 16.5-17.5-1.6975-8.0658 2.5-20-2.9041-10.782 0.5-23.5-4.9287-4.3566-5.5-14.5-4.307-17.329-16-12.5l-10.5 21.5m-79.55 0.25q0.95 0.95 0.95 2.3t-0.95 2.25q-0.9 0.95-2.25 0.95t-2.3-0.95q-0.9-0.9-0.9-2.25t0.9-2.3q0.95-0.9 2.3-0.9t2.25 0.9zm-9.1-2.8q6.0963-1.4529 12.8 0.175 6.3998 1.5398 13.35 5.875-5.7934 3.3371-13.35 5.175-4.902 1.1756-10.55 1.725-9.2941 0.91484-20.6 0.1 8.3471-10.665 18.35-13.05-6.1637 7.9328 2.25 12.95m10.55-12.775q3.7646 5.9955 0 11.05m-86.75 14.025q5.0582-1.652 11.1-4.7-3.0469-2.8439-7-4.95 0.98613 5.3227-4.1 9.65-3.026 0.98711-4.65 1.25-10.237 1.9316-15.25-2.275-1.7561-1.4721-2.65-3.325 1.4912-1.7066 3.3-2.8 3.7049-2.2475 7.2-3.425 8.7615-2.9393 16.15 0.925m-7.7-1.85q1.45 0 2.45 1t1 2.45-1 2.45-2.45 1-2.45-1-1-2.45 1-2.45 2.45-1zm-15.65 4.35q-2.4453 3.0625-0.65 6.125m-17.5-26.475q-2.6561 8.3281 0.675 16.35m74.425 54.825q4.9408-1.743 9.45-1 0.64668 0.10586 1.275 0.275 0.28848 0.069922 0.575 0.15 2.8969 0.8123 5.6 2.7 5.6982-0.051758 7.5-4 2.6803-18.351-16-19.5m-9.675 21.875q-1.641 0.67852-3.325 1.625m-20.175 1.5q-0.091602-0.070508-0.175-0.15-1.4162-0.63008-2.55-0.725m-2.2 0.45q-0.68672 0.44688-1.15 1.275m6.075-0.85q5.4766 5.0771 17.175 6.5m-17.35-6.65q-4.9258-4.6646-4.7-12.35l0.3-2.475q-17.85 13.709 4.75 21.975m6.325 25.275q10.996-4.8545 18.925-3.775 3.1859-6.7428 46.5-4.25-19.961 27.394-41.25 25.5-23.454 11.723-38-6.25 2.8232-6.3715 13.825-11.225zm-45.375-89.175q20.45-16.65 39.5-2.5l-5.2 44.425m-32.75-28.525q0 7 12 13m0.35-27.375q-2.333 10.111 7.4 11.825m114.2 148.52q-15.583 27.383-55.75 29.275-26.95 0.91328-53.2-33.25-2.5971-5.3518-4.025-10.7m53.025-149.8q20.617-30.869 57-10.5m-101 116q25.103 3.8994 79.25-19.25" fill="none" stroke="#000" stroke-linecap="round" stroke-linejoin="round"/>
  <path id="z" d="m106.55-138q0.047852 6.7381 4 12.5 6.0031 10.204 2.75 21.25m-19-10.75q1.6297 9.7422 7 13.75-2.55 9.5-0.75 18.25m14.5-37q0.0068359-12.169-5.5-22.5-11.1 1.2502-16.5 21.5m7.5 1.75q15.027 2.7535 4.5 16m-0.75 21.25q4.4064 5.5104 0 12" fill="none" stroke="#000" stroke-linecap="round" stroke-linejoin="round" stroke-width=".5"/>
  <path id="aa" d="m-110.45-135.3q34.313-19.191 31.5-0.7-27.842 1.4789-30.825 17.05m128.58 16.95q-32.682 19.982 0 51.5m-48.25-81.5q-8.0783 13.141-5 30m6.5-50q35.16-14.093 74 5-35.075-3.6379-66.5 5.5-11.227 2.7822-7.5-10.5zm-15 98l3.5 14.25m2.5-15.25l5.5 14m-14.5-9v12.25m-25.75-9.75l-10.5 19" fill="none" stroke="#000" stroke-linecap="round" stroke-linejoin="round" stroke-width=".25"/>
 </defs>
 <g transform="matrix(.89117 0 0 .88292 277 199.9)">
  <g transform="matrix(.90822 0 0 .87692 -25.7 89.6)">
   <use xlink:href="#w"/>
   <use xlink:href="#t"/>
   <use xlink:href="#u"/>
   <use xlink:href="#v"/>
   <use xlink:href="#x"/>
  </g>
  <g transform="matrix(.95148 .036163 -.034958 .85809 -14.35 -3.65)">
   <g transform="translate(-5.05 -213.5)">
    <use xlink:href="#s"/>
    <use xlink:href="#r"/>
   </g>
   <use xlink:href="#ab"/>
   <use xlink:href="#y"/>
   <use xlink:href="#z"/>
   <use xlink:href="#aa"/>
  </g>
 </g>
</svg>
